<?xml version="1.0" standalone="no"?>
<!DOCTYPE svg PUBLIC "-//W3C//DTD SVG 20010904//EN"
 "http://www.w3.org/TR/2001/REC-SVG-20010904/DTD/svg10.dtd">
<svg version="1.0" xmlns="http://www.w3.org/2000/svg"
 width="512.000000pt" height="512.000000pt" viewBox="0 0 512.000000 512.000000"
 preserveAspectRatio="xMidYMid meet">

<g transform="translate(0.000000,512.000000) scale(0.100000,-0.100000)"
fill="#FFFFFF" stroke="none">
<path d="M2445 4796 c-132 -30 -220 -81 -312 -179 -32 -35 -73 -90 -91 -124
-30 -57 -37 -63 -87 -82 -270 -101 -498 -300 -649 -565 -92 -162 -182 -445
-205 -646 -6 -52 -20 -228 -31 -390 -43 -635 -92 -928 -190 -1136 -46 -99 -98
-153 -195 -201 -168 -85 -205 -124 -205 -218 0 -74 47 -140 119 -164 49 -16
3867 -16 3923 1 47 14 103 73 116 122 13 45 -1 110 -33 151 -14 19 -61 50
-121 80 -116 58 -182 116 -229 199 -99 177 -162 521 -200 1096 -32 489 -50
613 -120 824 -134 411 -408 712 -767 846 -53 20 -60 26 -90 83 -40 75 -135
179 -205 223 -116 75 -300 109 -428 80z m247 -157 c137 -46 225 -131 287 -279
17 -42 23 -47 85 -69 363 -128 606 -382 732 -768 60 -184 83 -332 104 -668 52
-842 135 -1209 317 -1405 40 -44 79 -71 162 -115 103 -53 129 -75 115 -96 -3
-5 -786 -9 -1934 -9 -1688 0 -1929 2 -1934 15 -8 22 15 40 124 96 75 38 112
65 153 108 178 193 260 541 312 1336 24 369 33 442 69 590 121 485 362 772
772 916 62 22 68 27 85 69 62 147 148 232 285 279 80 27 185 27 266 0z"/>
<path d="M1974 885 c-11 -29 26 -171 66 -253 68 -137 199 -249 345 -295 98
-30 251 -30 351 1 146 45 275 156 344 294 40 82 77 224 66 253 -8 23 -1164 23
-1172 0z m991 -157 c-23 -78 -133 -188 -235 -237 -49 -22 -68 -25 -170 -26
-110 0 -118 1 -182 33 -96 47 -201 155 -223 230 l-6 22 411 0 411 0 -6 -22z"/>
</g>
</svg>
