<?xml version="1.0" standalone="no"?>
<!DOCTYPE svg PUBLIC "-//W3C//DTD SVG 20010904//EN"
 "http://www.w3.org/TR/2001/REC-SVG-20010904/DTD/svg10.dtd">
<svg version="1.0" xmlns="http://www.w3.org/2000/svg"
 width="200.000000pt" height="200.000000pt" viewBox="0 0 200.000000 200.000000"
 preserveAspectRatio="xMidYMid meet">

<g transform="translate(0.000000,200.000000) scale(0.100000,-0.100000)"
fill="#FFFFFF" stroke="none">
<path d="M431 1575 c-19 -17 -41 -54 -62 -108 -41 -106 -129 -375 -179 -549
-39 -133 -40 -140 -40 -293 l0 -157 34 -34 34 -34 782 0 782 0 34 34 34 34 0
169 c0 193 -7 226 -115 543 -92 271 -133 366 -166 395 l-31 25 -538 0 -538 0
-31 -25z m1108 -92 c15 -32 79 -219 182 -537 10 -33 19 -66 19 -73 0 -11 -138
-13 -740 -13 -407 0 -740 4 -740 8 0 4 14 53 31 107 94 306 164 510 182 533 7
9 125 12 528 12 l519 0 19 -37z m223 -710 c16 -14 18 -33 18 -143 0 -85 -4
-130 -12 -138 -17 -17 -1519 -17 -1536 0 -8 8 -12 54 -12 139 0 103 3 131 16
143 14 14 97 16 761 16 681 0 748 -1 765 -17z"/>
<path d="M1568 680 c-24 -25 -29 -36 -23 -58 8 -34 33 -59 67 -67 22 -6 33 -1
58 23 37 37 39 74 5 107 -33 34 -70 32 -107 -5z"/>
</g>
</svg>
