<?xml version="1.0" standalone="no"?>
<!DOCTYPE svg PUBLIC "-//W3C//DTD SVG 20010904//EN"
 "http://www.w3.org/TR/2001/REC-SVG-20010904/DTD/svg10.dtd">
<svg version="1.0" xmlns="http://www.w3.org/2000/svg"
 width="200.000000pt" height="200.000000pt" viewBox="0 0 200.000000 200.000000"
 preserveAspectRatio="xMidYMid meet">

<g transform="translate(0.000000,200.000000) scale(0.100000,-0.100000)"
fill="#FFFFFF" stroke="none">
<path d="M313 1980 c-67 -40 -63 15 -63 -980 0 -995 -4 -940 63 -980 31 -19
55 -20 687 -20 632 0 656 1 687 20 66 40 63 8 63 767 l0 688 -263 263 -262
262 -440 0 c-419 0 -442 -1 -472 -20z m857 -275 c3 -143 9 -217 18 -232 24
-43 47 -48 267 -53 l210 -5 3 -649 c2 -594 1 -651 -14 -668 -16 -17 -49 -18
-652 -18 -577 0 -637 2 -654 17 -17 15 -18 56 -18 901 0 812 1 887 17 904 15
17 39 18 417 16 l401 -3 5 -210z m269 -203 c-110 -2 -166 1 -175 9 -11 9 -14
48 -14 178 l0 166 175 -175 175 -175 -161 -3z"/>
</g>
</svg>
