<?xml version="1.0" standalone="no"?>
<!DOCTYPE svg PUBLIC "-//W3C//DTD SVG 20010904//EN"
 "http://www.w3.org/TR/2001/REC-SVG-20010904/DTD/svg10.dtd">
<svg version="1.0" xmlns="http://www.w3.org/2000/svg"
 width="512.000000pt" height="512.000000pt" viewBox="0 0 512.000000 512.000000"
 preserveAspectRatio="xMidYMid meet">

<g transform="translate(0.000000,512.000000) scale(0.100000,-0.100000)"
fill="#FFFFFF" stroke="none">
<path d="M2201 5107 c-13 -6 -34 -25 -45 -40 -20 -27 -21 -42 -24 -347 l-3
-320 -42 -10 c-135 -35 -304 -91 -399 -132 l-50 -21 -216 215 c-119 118 -228
223 -242 232 -13 9 -40 16 -59 16 -33 0 -58 -23 -368 -333 l-333 -332 0 -44 0
-44 231 -233 231 -232 -35 -88 c-40 -99 -90 -253 -108 -329 -22 -93 11 -85
-350 -85 l-321 0 -34 -34 -34 -34 0 -348 c1 -377 1 -378 56 -415 27 -18 49
-19 344 -19 l316 0 42 -147 c24 -80 61 -192 83 -247 l40 -100 -214 -216 c-118
-118 -222 -226 -231 -240 -21 -31 -21 -79 0 -110 24 -36 572 -587 618 -621 28
-21 50 -29 79 -29 39 0 47 7 272 230 l231 230 55 -23 c64 -29 277 -99 371
-122 l67 -17 3 -322 c3 -287 5 -324 21 -347 32 -47 46 -49 408 -49 289 0 345
2 370 16 56 28 59 52 59 392 l0 309 88 23 c108 28 279 85 351 117 l55 24 231
-231 231 -230 49 0 49 0 314 312 c172 172 320 325 328 340 17 32 18 71 3 101
-6 12 -110 121 -230 242 l-220 221 24 54 c29 66 99 278 123 372 l16 68 315 0
c261 0 319 3 343 15 59 30 60 40 60 417 0 306 -2 346 -17 368 -9 14 -24 30
-32 35 -10 6 -150 12 -340 15 l-325 5 -43 150 c-24 82 -62 195 -83 250 l-40
100 230 230 230 231 0 44 0 45 -333 332 c-310 311 -335 333 -367 333 -20 0
-47 -7 -60 -16 -14 -9 -122 -113 -241 -231 l-216 -215 -39 17 c-108 46 -247
91 -411 135 l-43 11 0 310 c0 341 -3 359 -59 392 -26 15 -66 17 -368 17 -248
0 -344 -4 -362 -13z m569 -484 c0 -160 5 -304 10 -324 15 -53 46 -75 140 -99
227 -58 382 -110 504 -172 100 -50 97 -52 348 199 l218 218 227 -227 228 -228
-217 -217 c-165 -166 -218 -226 -223 -250 -5 -27 3 -53 43 -140 54 -117 105
-268 147 -433 14 -58 33 -116 41 -128 31 -48 61 -52 379 -52 l295 0 -2 -212
-3 -213 -318 -5 -319 -5 -22 -26 c-14 -17 -33 -67 -50 -135 -41 -162 -103
-347 -153 -456 -35 -75 -44 -103 -38 -125 4 -18 84 -106 226 -248 l219 -220
-228 -228 -227 -227 -215 215 c-161 161 -224 218 -251 226 -34 11 -44 8 -130
-34 -109 -52 -251 -101 -432 -147 -71 -19 -139 -42 -152 -52 -14 -10 -29 -36
-35 -56 -6 -21 -10 -158 -10 -324 l0 -288 -210 0 -210 0 0 295 c0 318 -4 348
-52 379 -12 8 -70 27 -128 41 -165 42 -347 103 -448 153 -87 41 -96 44 -130
34 -28 -9 -89 -64 -252 -227 l-215 -215 -222 222 c-123 123 -223 227 -223 233
0 6 97 107 215 225 167 167 216 222 221 247 5 25 -5 55 -44 140 -54 117 -94
235 -141 417 -17 64 -35 125 -40 135 -25 45 -28 46 -360 51 l-316 5 -3 212 -2
212 314 3 c394 4 353 -19 421 242 40 154 90 297 141 398 36 72 41 96 23 131
-6 12 -106 118 -223 235 l-211 212 228 227 227 228 212 -211 c117 -117 223
-217 235 -223 35 -18 55 -13 154 33 109 51 256 101 433 147 102 26 130 37 153
61 l28 29 3 315 3 314 210 0 209 0 0 -287z"/>
<path d="M2405 3613 c-308 -49 -571 -221 -743 -486 -103 -160 -151 -315 -159
-519 -9 -209 24 -365 110 -533 202 -390 618 -618 1049 -574 128 13 199 30 308
77 368 156 608 482 650 883 52 507 -280 986 -782 1125 -78 22 -119 26 -248 29
-85 2 -168 1 -185 -2z m383 -232 c311 -90 541 -336 607 -647 21 -101 19 -271
-5 -372 -85 -353 -383 -614 -744 -651 -404 -41 -774 205 -902 599 -25 77 -28
99 -28 240 -1 133 2 166 22 233 90 313 333 541 652 612 94 21 302 14 398 -14z"/>
</g>
</svg>
