<?xml version="1.0" standalone="no"?>
<!DOCTYPE svg PUBLIC "-//W3C//DTD SVG 20010904//EN"
 "http://www.w3.org/TR/2001/REC-SVG-20010904/DTD/svg10.dtd">
<svg version="1.0" xmlns="http://www.w3.org/2000/svg"
 width="512.000000pt" height="512.000000pt" viewBox="0 0 512.000000 512.000000"
 preserveAspectRatio="xMidYMid meet">

<g transform="translate(0.000000,512.000000) scale(0.100000,-0.100000)"
fill="#FFFFFF" stroke="none">
<path d="M3607 4468 c-163 -94 -307 -207 -462 -363 -194 -195 -385 -448 -539
-712 -26 -46 -52 -85 -56 -88 -5 -3 -57 35 -117 85 -442 373 -995 599 -1525
627 -96 4 -131 3 -143 -7 -12 -10 -15 -44 -15 -206 0 -107 -2 -194 -4 -194
-40 0 -214 -24 -228 -31 -16 -9 -18 -24 -18 -159 l0 -150 -95 0 -95 0 2 -1342
3 -1343 2233 0 c2199 0 2234 0 2248 19 12 17 14 213 14 1323 0 1290 0 1303
-20 1323 -18 18 -33 20 -165 20 l-145 0 0 348 c0 259 -3 353 -13 372 -12 23
-19 25 -91 28 -90 3 -363 -29 -484 -58 -46 -11 -85 -20 -88 -20 -2 0 -4 120
-4 268 0 194 -4 274 -13 292 -22 44 -60 38 -180 -32z m73 -2537 c-225 -126
-361 -230 -540 -411 -166 -168 -280 -310 -424 -528 l-101 -154 -3 1182 -2
1181 62 107 c273 472 608 845 937 1043 l76 45 3 -1230 c1 -816 -1 -1232 -8
-1235z m-2609 1969 c294 -41 589 -138 849 -277 158 -84 408 -264 533 -382 l57
-54 0 -1214 c0 -667 -3 -1213 -6 -1213 -3 0 -36 26 -74 58 -418 352 -963 581
-1475 619 l-100 8 -3 1238 -2 1237 42 0 c24 0 104 -9 179 -20z m3299 -1215 l0
-1235 -22 -4 c-13 -3 -61 -8 -108 -11 -195 -14 -488 -77 -696 -149 -224 -78
-459 -198 -673 -343 -58 -39 -108 -70 -109 -68 -2 2 33 57 77 123 265 388 550
660 874 837 44 23 71 46 78 61 5 15 9 406 9 983 l0 957 73 17 c138 32 351 63
445 66 l52 1 0 -1235z m-3620 -236 c0 -680 4 -1067 10 -1079 8 -14 26 -20 87
-24 311 -24 553 -76 798 -173 97 -38 408 -193 401 -200 -2 -3 -46 9 -98 25
-115 37 -284 75 -454 103 -150 24 -625 37 -779 21 -49 -5 -93 -7 -97 -3 -3 3
-9 540 -13 1193 l-7 1187 53 4 c30 2 64 4 77 5 l22 2 0 -1061z m-249 206 c3
-280 7 -753 8 -1050 1 -414 4 -546 14 -565 12 -23 18 -25 77 -23 534 15 629
15 765 -1 349 -41 682 -137 960 -279 l90 -46 -1002 0 -1003 -1 0 1233 c0 679
3 1237 7 1241 4 4 23 6 43 4 l35 -3 6 -510z m4207 -727 l2 -1238 -1000 0
c-550 0 -1000 2 -1000 4 0 8 163 132 255 193 131 88 252 154 405 221 309 136
588 205 942 233 92 7 138 15 148 25 13 13 15 130 18 910 l2 895 113 -3 112 -3
3 -1237z"/>
</g>
</svg>
