<?xml version="1.0" standalone="no"?>
<!DOCTYPE svg PUBLIC "-//W3C//DTD SVG 20010904//EN"
 "http://www.w3.org/TR/2001/REC-SVG-20010904/DTD/svg10.dtd">
<svg version="1.0" xmlns="http://www.w3.org/2000/svg"
 width="200.000000pt" height="200.000000pt" viewBox="0 0 200.000000 200.000000"
 preserveAspectRatio="xMidYMid meet">

<g transform="translate(0.000000,200.000000) scale(0.100000,-0.100000)"
fill="#FFFFFF" stroke="none">
<path d="M830 1985 c-606 -115 -972 -728 -777 -1300 159 -466 635 -753 1108
-670 108 19 182 41 208 63 19 15 20 19 8 36 -13 18 -15 18 -78 -2 -260 -84
-532 -57 -769 75 -119 67 -276 224 -343 343 -98 175 -141 384 -118 573 16 129
57 258 118 367 67 119 224 276 343 343 109 61 238 102 368 118 241 29 505 -49
696 -206 l47 -38 -49 -50 -50 -50 -44 35 c-68 56 -140 97 -225 127 -391 143
-816 -36 -997 -420 -56 -117 -71 -187 -71 -329 0 -142 15 -212 70 -327 130
-276 384 -451 680 -469 50 -3 115 -2 145 3 50 7 55 11 58 35 l3 26 -133 -1
c-157 -1 -235 15 -353 73 -190 92 -331 263 -387 467 -29 108 -29 278 0 386 68
251 269 451 519 519 101 27 268 29 368 4 89 -21 217 -84 275 -135 l45 -40 -47
-47 -46 -47 -50 37 c-234 171 -555 148 -766 -56 -51 -49 -77 -67 -90 -64 -11
3 -33 -1 -51 -8 -74 -31 -98 -117 -50 -174 24 -28 24 -32 14 -88 -46 -242 97
-515 328 -630 89 -44 147 -54 157 -29 9 24 -7 40 -56 54 -216 64 -371 274
-372 506 0 111 5 127 54 149 69 30 96 95 65 155 -14 28 -14 29 48 88 104 100
221 147 367 147 106 0 202 -28 288 -83 34 -23 62 -44 62 -49 0 -4 -20 -28 -45
-52 -39 -38 -48 -43 -63 -32 -39 29 -125 64 -182 74 -253 47 -499 -200 -452
-454 6 -34 24 -87 39 -117 34 -71 115 -154 146 -149 38 5 32 36 -17 79 -180
159 -133 456 88 555 85 38 187 39 266 2 92 -44 91 -41 36 -97 l-48 -49 -42 19
c-52 24 -100 24 -151 0 -70 -32 -125 -111 -125 -178 1 -105 125 -207 229 -188
73 14 135 64 116 95 -10 15 -30 12 -70 -11 -48 -29 -134 -23 -170 11 -72 68
-40 194 55 220 37 10 100 4 100 -9 0 -4 -20 -27 -45 -51 -49 -49 -58 -91 -21
-98 27 -6 1008 974 1004 1003 -7 48 -42 27 -177 -109 l-134 -134 -71 55 c-93
71 -269 157 -376 183 -111 28 -307 35 -410 15z m-311 -699 c17 -20 10 -67 -11
-80 -28 -17 -72 4 -76 37 -4 36 13 57 48 57 15 0 33 -6 39 -14z"/>
<path d="M1415 835 c-31 -31 -35 -42 -35 -85 0 -43 4 -54 35 -85 31 -31 42
-35 85 -35 43 0 54 4 85 35 31 31 35 42 35 85 0 43 -4 54 -35 85 -31 31 -42
35 -85 35 -43 0 -54 -4 -85 -35z m129 -41 c9 -8 16 -28 16 -44 0 -16 -7 -36
-16 -44 -8 -9 -28 -16 -44 -16 -16 0 -36 7 -44 16 -9 8 -16 28 -16 44 0 16 7
36 16 44 8 9 28 16 44 16 16 0 36 -7 44 -16z"/>
</g>
</svg>
